<svg width="90" height="48" viewBox="0 0 90 48" fill="none" xmlns="http://www.w3.org/2000/svg">
<g clip-path="url(#clip0_2338_423)">
<path d="M47.1065 0.5H42.8936V16.6503H47.1065V0.5Z" fill="#9E9E9E"/>
<path d="M65.4126 0.5V3.86436H70.7144V16.6503H74.9252V3.86436H80.227V0.5H65.4126Z" fill="#9E9E9E"/>
<path d="M59.5451 6.89296H56.0224C55.0872 6.89296 54.3279 6.50048 54.3279 5.37752C54.3279 4.25456 55.0872 3.86209 56.0224 3.86209H63.5933V0.5H55.5214C52.5086 0.5 50.0659 2.27179 50.0659 5.37752C50.0659 8.48325 52.5086 10.255 55.5214 10.255H59.1443C60.0795 10.255 60.8366 10.6498 60.8366 11.7705C60.8366 12.8912 60.0795 13.2836 59.1443 13.2836H50.6493V16.648H59.5429C62.5556 16.648 64.9984 14.8807 64.9984 11.7727C64.9984 8.66474 62.5556 6.89069 59.5429 6.89069" fill="#9E9E9E"/>
<path d="M30.0676 0.5L24.1089 15.0327L18.4285 8.574L25.5317 0.5H20.7198L13.9884 8.16565V0.5H9.77539V16.6503H13.9884V8.98235L20.7198 16.6503H27.7273L32.5526 4.47008L36.0553 13.4266H30.4862L31.8089 16.6503H41.6599L35.0376 0.5H30.0676Z" fill="#9E9E9E"/>
<mask id="mask0_2338_423" style="mask-type:luminance" maskUnits="userSpaceOnUse" x="0" y="20" width="90" height="7">
<path d="M0 23.4336C14.7009 25.5616 29.7246 26.6641 45 26.6641C60.2754 26.6641 75.3014 25.5616 90 23.4336C75.2991 21.3057 60.2776 20.2031 45 20.2031C29.7224 20.2031 14.7009 21.3057 0 23.4336Z" fill="white"/>
</mask>
<g mask="url(#mask0_2338_423)">
<path d="M90 20.2031H0V26.6641H90V20.2031Z" fill="#9E9E9E"/>
</g>
</g>
<path d="M71.6493 42.9492C71.6493 43.8816 71.4229 44.6882 70.97 45.369C70.5172 46.0498 69.8598 46.5752 68.9979 46.9452C68.1506 47.3152 67.1352 47.5002 65.9519 47.5002C65.3822 47.5002 64.8344 47.4632 64.3085 47.3892C63.7972 47.33 63.3078 47.2338 62.8403 47.1006C62.3874 46.9674 61.9638 46.8046 61.5693 46.6122V43.9482C62.2267 44.2442 62.9499 44.518 63.7387 44.7696C64.5276 45.0064 65.3311 45.1248 66.1492 45.1248C66.7773 45.1248 67.2886 45.0434 67.6831 44.8806C68.0921 44.703 68.3916 44.4662 68.5815 44.1702C68.7714 43.8594 68.8664 43.5042 68.8664 43.1046C68.8664 42.6606 68.7422 42.2832 68.4939 41.9724C68.2455 41.6616 67.8803 41.373 67.3982 41.1066C66.9161 40.8402 66.3172 40.559 65.6013 40.263C65.1192 40.0559 64.6445 39.8265 64.177 39.5749C63.7241 39.3085 63.3151 38.9903 62.9499 38.6203C62.5846 38.2503 62.2925 37.8137 62.0733 37.3105C61.8542 36.8073 61.7446 36.2153 61.7446 35.5345C61.7446 34.6317 61.9565 33.8547 62.3801 33.2035C62.8184 32.5523 63.4246 32.0566 64.1989 31.7162C64.9878 31.3758 65.9008 31.2056 66.938 31.2056C67.7707 31.2056 68.5523 31.2944 69.2827 31.472C70.0132 31.6496 70.7363 31.9012 71.4521 32.2268L70.5537 34.5133C69.9109 34.2321 69.29 34.0101 68.6911 33.8473C68.0921 33.6845 67.4786 33.6031 66.8504 33.6031C66.3537 33.6031 65.93 33.6845 65.5794 33.8473C65.2288 33.9953 64.9659 34.2099 64.7906 34.4911C64.6152 34.7723 64.5276 35.0979 64.5276 35.4679C64.5276 35.8971 64.6372 36.2597 64.8563 36.5557C65.0754 36.8517 65.4114 37.1329 65.8643 37.3993C66.3318 37.6509 66.9307 37.9395 67.6612 38.2651C68.5085 38.6351 69.2243 39.0199 69.8086 39.4195C70.393 39.8191 70.8459 40.3 71.1672 40.8624C71.4886 41.4248 71.6493 42.1204 71.6493 42.9492Z" fill="#9E9E9E"/>
<path d="M59.2176 39.1971C59.2176 40.9731 58.8816 42.4605 58.2096 43.6593C57.5522 44.8581 56.5954 45.7609 55.339 46.3676C54.0973 46.9744 52.5926 47.2778 50.8249 47.2778H46.4204V31.4272H51.2851C52.9067 31.4272 54.3091 31.7232 55.4924 32.3152C56.6757 32.9072 57.5888 33.7804 58.2315 34.9348C58.8889 36.0744 59.2176 37.4952 59.2176 39.1971ZM56.2813 39.2859C56.2813 38.028 56.0914 36.992 55.7115 36.178C55.3317 35.364 54.7693 34.7646 54.0242 34.3798C53.2792 33.9802 52.3661 33.7804 51.2851 33.7804H49.2253V44.9025H50.9126C52.7241 44.9025 54.0681 44.4363 54.9446 43.5039C55.8357 42.5567 56.2813 41.1507 56.2813 39.2859Z" fill="#9E9E9E"/>
<path d="M43.4662 42.9492C43.4662 43.8816 43.2398 44.6882 42.7869 45.369C42.3341 46.0498 41.6767 46.5752 40.8148 46.9452C39.9674 47.3152 38.9521 47.5002 37.7688 47.5002C37.1991 47.5002 36.6513 47.4632 36.1254 47.3892C35.6141 47.33 35.1247 47.2338 34.6572 47.1006C34.2043 46.9674 33.7807 46.8046 33.3862 46.6122V43.9482C34.0436 44.2442 34.7668 44.518 35.5556 44.7696C36.3445 45.0064 37.148 45.1248 37.9661 45.1248C38.5942 45.1248 39.1055 45.0434 39.5 44.8806C39.909 44.703 40.2085 44.4662 40.3984 44.1702C40.5883 43.8594 40.6833 43.5042 40.6833 43.1046C40.6833 42.6606 40.5591 42.2832 40.3108 41.9724C40.0624 41.6616 39.6972 41.373 39.2151 41.1066C38.733 40.8402 38.1341 40.559 37.4182 40.263C36.9361 40.0559 36.4614 39.8265 35.9939 39.5749C35.541 39.3085 35.132 38.9903 34.7668 38.6203C34.4015 38.2503 34.1094 37.8137 33.8902 37.3105C33.6711 36.8073 33.5615 36.2153 33.5615 35.5345C33.5615 34.6317 33.7734 33.8547 34.197 33.2035C34.6353 32.5523 35.2415 32.0566 36.0158 31.7162C36.8047 31.3758 37.7177 31.2056 38.7549 31.2056C39.5876 31.2056 40.3692 31.2944 41.0996 31.472C41.8301 31.6496 42.5532 31.9012 43.269 32.2268L42.3706 34.5133C41.7278 34.2321 41.1069 34.0101 40.508 33.8473C39.909 33.6845 39.2954 33.6031 38.6673 33.6031C38.1706 33.6031 37.7469 33.6845 37.3963 33.8473C37.0457 33.9953 36.7828 34.2099 36.6074 34.4911C36.4321 34.7723 36.3445 35.0979 36.3445 35.4679C36.3445 35.8971 36.4541 36.2597 36.6732 36.5557C36.8923 36.8517 37.2283 37.1329 37.6812 37.3993C38.1487 37.6509 38.7476 37.9395 39.4781 38.2651C40.3254 38.6351 41.0412 39.0199 41.6255 39.4195C42.2099 39.8191 42.6628 40.3 42.9841 40.8624C43.3055 41.4248 43.4662 42.1204 43.4662 42.9492Z" fill="#9E9E9E"/>
<path d="M24.7178 38.5759H30.6343V46.6344C29.8016 46.9156 28.947 47.1302 28.0705 47.2782C27.194 47.4262 26.2006 47.5002 25.0903 47.5002C23.5126 47.5002 22.1759 47.182 21.0802 46.5456C19.9846 45.9092 19.1519 44.9842 18.5821 43.7706C18.0124 42.557 17.7275 41.077 17.7275 39.3307C17.7275 37.6731 18.0489 36.2375 18.6917 35.0239C19.3345 33.8103 20.2548 32.8705 21.4528 32.2046C22.6653 31.5386 24.1408 31.2056 25.8792 31.2056C26.7265 31.2056 27.5446 31.2944 28.3335 31.472C29.1369 31.6348 29.8674 31.8642 30.5248 32.1602L29.5606 34.4911C29.0639 34.2395 28.4868 34.0323 27.8295 33.8695C27.1867 33.6919 26.5147 33.6031 25.8135 33.6031C24.747 33.6031 23.8267 33.8399 23.0524 34.3135C22.2781 34.7871 21.6792 35.4605 21.2555 36.3337C20.8465 37.1921 20.642 38.2059 20.642 39.3751C20.642 40.4998 20.8027 41.4988 21.1241 42.372C21.4455 43.2304 21.9568 43.9038 22.658 44.3922C23.3592 44.8658 24.2722 45.1026 25.3971 45.1026C25.7769 45.1026 26.1056 45.0878 26.3832 45.0582C26.6754 45.0286 26.9383 44.9916 27.1721 44.9472C27.4204 44.9028 27.6541 44.8584 27.8733 44.814V40.9956H24.7178V38.5759Z" fill="#9E9E9E"/>
<defs>
<clipPath id="clip0_2338_423">
<rect width="90" height="26.1639" fill="white" transform="translate(0 0.5)"/>
</clipPath>
</defs>
</svg>
