<svg width="220" height="38" viewBox="0 0 220 38" fill="none" xmlns="http://www.w3.org/2000/svg">
<path d="M67.0738 0.85083H61.0754V23.4186H67.0738V0.85083Z" fill="white"/>
<path d="M93.1353 0.85083V5.55191H100.688V23.4186H106.673V5.55191H114.226V0.85083H93.1353Z" fill="white"/>
<path d="M84.7864 9.77773H79.6486C78.3128 9.77773 77.3623 9.12267 77.3623 7.6584C77.3623 6.19413 78.3128 5.53906 79.6486 5.53906H90.5536V0.85083H79.0578C74.7677 0.85083 71.2869 3.32981 71.2869 7.67124C71.2869 12.0127 74.7677 14.4917 79.0578 14.4917H84.3368C85.6598 14.4917 86.6232 15.1467 86.6232 16.611C86.6232 18.0753 85.6598 18.7303 84.3368 18.7303H72.1218V23.4314H84.7864C89.0765 23.4314 92.5573 20.9653 92.5573 16.611C92.5573 12.2567 89.0765 9.79058 84.7864 9.79058" fill="white"/>
<path d="M42.8108 0.85083L34.3334 21.1579L26.2414 12.1283L36.35 0.85083H29.5039L19.922 11.5631V0.85083H13.9236V23.4186H19.922V12.7063L29.5039 23.4186H39.4841L46.343 6.39964L51.3395 18.9102H43.4016L45.2898 23.4186H59.3159L49.8881 0.85083H42.8108Z" fill="white"/>
<path d="M0 32.8976C20.9236 35.8775 42.3225 37.406 64.0682 37.406C85.8139 37.406 107.213 35.8646 128.136 32.8976C107.213 29.9305 85.8139 28.3892 64.0682 28.3892C42.3225 28.3892 20.9236 29.9305 0 32.8976Z" fill="white"/>
<path d="M165 9.77773H159.862C158.526 9.77773 157.576 9.12267 157.576 7.6584C157.576 6.19413 158.526 5.53906 159.862 5.53906H170.767V0.85083H159.271C154.981 0.85083 151.5 3.32981 151.5 7.67124C151.5 12.0127 154.981 14.4917 159.271 14.4917H164.55C165.873 14.4917 166.837 15.1467 166.837 16.611C166.837 18.0753 165.873 18.7303 164.55 18.7303H152.335V23.4314H165C169.29 23.4314 172.771 20.9653 172.771 16.611C172.771 12.2567 169.29 9.79058 165 9.79058V9.77773Z" fill="white"/>
<path d="M212.229 9.77773H207.091C205.755 9.77773 204.805 9.12267 204.805 7.6584C204.805 6.19413 205.755 5.53906 207.091 5.53906H217.996V0.85083H206.5C202.21 0.85083 198.729 3.32981 198.729 7.67124C198.729 12.0127 202.21 14.4917 206.5 14.4917H211.779C213.102 14.4917 214.066 15.1467 214.066 16.611C214.066 18.0753 213.102 18.7303 211.779 18.7303H199.564V23.4314H212.229C216.519 23.4314 220 20.9653 220 16.611C220 12.2567 216.519 9.79058 212.229 9.79058V9.77773Z" fill="white"/>
<path d="M140.12 16.097H144.32V17.3815C144.32 17.8696 144.32 18.7815 142.073 18.7815H137.012C135.702 18.7815 134.687 18.3705 133.916 17.5484C133.249 16.7778 132.927 15.8016 132.94 14.5557V9.52065C132.927 8.2619 133.249 7.27287 133.904 6.52789C134.687 5.693 135.702 5.28198 137.038 5.28198H147.904V0.59375H136.896C134.045 0.59375 131.81 1.40295 130.269 2.96998C128.586 4.63976 127.738 6.79763 127.738 9.37937V14.7098C127.738 17.253 128.586 19.3981 130.269 21.0935C131.823 22.6605 134.045 23.4569 136.896 23.4569H142.214C144.539 23.4569 146.324 22.9303 147.532 21.8899C148.855 20.7596 149.535 19.2953 149.535 17.5099V11.3574H140.133V16.097H140.12Z" fill="white"/>
<path d="M187.581 0.657864H175.661V23.3412H187.581C190.355 23.3412 192.526 22.5577 194.054 21.0035C195.673 19.3337 196.495 17.2015 196.495 14.684V9.36641C196.495 6.81036 195.673 4.67818 194.054 3.02125C192.539 1.45422 190.368 0.64502 187.581 0.64502V0.657864ZM191.537 14.517C191.537 15.7758 191.203 16.7648 190.522 17.5483C189.777 18.3832 188.788 18.7943 187.491 18.7943H180.606V5.20481H187.491C188.788 5.20481 189.79 5.61583 190.535 6.43787C191.203 7.22139 191.524 8.22326 191.524 9.5077V14.517H191.537Z" fill="white"/>
</svg>
